<?xml version="1.0" encoding="UTF-8" standalone="no"?>
<!-- Created with Inkscape (http://www.inkscape.org/) -->

<svg
   xmlns:dc="http://purl.org/dc/elements/1.1/"
   xmlns:cc="http://creativecommons.org/ns#"
   xmlns:rdf="http://www.w3.org/1999/02/22-rdf-syntax-ns#"
   xmlns:svg="http://www.w3.org/2000/svg"
   xmlns="http://www.w3.org/2000/svg"
   xmlns:sodipodi="http://sodipodi.sourceforge.net/DTD/sodipodi-0.dtd"
   xmlns:inkscape="http://www.inkscape.org/namespaces/inkscape"
   width="24mm"
   height="24mm"
   viewBox="0 0 85.03937 85.03937"
   id="svg4136"
   version="1.1"
   inkscape:version="0.91 r13725"
   sodipodi:docname="icon.svg"
   inkscape:export-filename="C:\Users\hgroover\Documents\dev\moodle-youtube-pltrack\src\ytpltrack\pix\icon.png"
   inkscape:export-xdpi="25.4"
   inkscape:export-ydpi="25.4">
  <defs
     id="defs4138" />
  <sodipodi:namedview
     id="base"
     pagecolor="#ffffff"
     bordercolor="#666666"
     borderopacity="1.0"
     inkscape:pageopacity="0.0"
     inkscape:pageshadow="2"
     inkscape:zoom="7.9195959"
     inkscape:cx="29.571863"
     inkscape:cy="47.56989"
     inkscape:document-units="px"
     inkscape:current-layer="layer1"
     showgrid="false"
     inkscape:window-width="1920"
     inkscape:window-height="1017"
     inkscape:window-x="-8"
     inkscape:window-y="-8"
     inkscape:window-maximized="1" />
  <metadata
     id="metadata4141">
    <rdf:RDF>
      <cc:Work
         rdf:about="">
        <dc:format>image/svg+xml</dc:format>
        <dc:type
           rdf:resource="http://purl.org/dc/dcmitype/StillImage" />
        <dc:title />
      </cc:Work>
    </rdf:RDF>
  </metadata>
  <g
     inkscape:label="Layer 1"
     inkscape:groupmode="layer"
     id="layer1"
     transform="translate(0,-967.32283)">
    <rect
       style="opacity:1;fill:#62e2c1;fill-opacity:1;stroke:#000000;stroke-width:2;stroke-miterlimit:4;stroke-dasharray:none;stroke-opacity:1"
       id="rect4684"
       width="69.44799"
       height="44.95179"
       x="6.0609155"
       y="973.57031" />
    <text
       xml:space="preserve"
       style="font-style:normal;font-weight:normal;font-size:40px;line-height:125%;font-family:sans-serif;letter-spacing:0px;word-spacing:0px;fill:#241bb7;fill-opacity:1;stroke:none;stroke-width:1px;stroke-linecap:butt;stroke-linejoin:miter;stroke-opacity:1;"
       x="11.364216"
       y="990.99542"
       id="text4686"
       sodipodi:linespacing="125%"><tspan
         sodipodi:role="line"
         id="tspan4688"
         x="11.364216"
         y="990.99542"
         style="font-size:15px;fill:#241bb7;fill-opacity:1;">Intro</tspan></text>
    <path
       style="fill:#fcbd6a;fill-opacity:1;fill-rule:evenodd;stroke:none;stroke-width:1px;stroke-linecap:butt;stroke-linejoin:miter;stroke-opacity:1"
       d="m 34.345187,1045.7962 -0.252539,-17.4251 c -0.03392,-2.3402 4.574524,-2.1684 5.555839,-4.2932 0.742041,-1.6067 0.282553,-3.6164 -0.252538,-5.3033 -0.663695,-2.0924 -2.933652,-3.4448 -3.535534,-5.5558 -1.027185,-3.6027 -1.520186,-7.873 0.12627,-11.238 1.040017,-2.1256 3.327389,-3.62325 5.555838,-4.41937 2.77482,-0.99132 6.028135,-1.01075 8.838835,-0.12628 2.473637,0.77841 5.157498,2.22438 6.313454,4.54575 1.651474,3.3164 0.757012,7.547 -0.252539,11.1116 -0.704214,2.4866 -3.050063,3.0792 -3.788072,5.5559 -0.481379,1.6155 -0.71227,3.8409 0.126269,5.3032 1.17996,2.0577 5.793333,1.7949 5.808378,4.1669 0.018,2.8374 0,16.1625 0,16.1625 l -25.001276,0"
       id="path4690"
       inkscape:connector-curvature="0"
       sodipodi:nodetypes="csssssssssssscc" />
  </g>
</svg>
